<?xml version="1.0" encoding="utf-8"?>
<!-- Generator: Adobe Illustrator 25.4.1, SVG Export Plug-In . SVG Version: 6.00 Build 0)  -->
<svg version="1.1" id="Layer_1" xmlns="http://www.w3.org/2000/svg" xmlns:xlink="http://www.w3.org/1999/xlink" x="0px" y="0px"
	 viewBox="0 0 1080 1080" style="enable-background:new 0 0 1080 1080;" xml:space="preserve">
<style type="text/css">
	.st0{opacity:0;}
	.st1{fill:#FFFFFF;}
	.st2{fill:#6FD7A3;}
	.st3{fill:#554E56;}
	.st4{fill:#433F43;}
	.st5{fill:#FD4755;}
	.st6{fill:#FFD15B;}
	.st7{fill:#8AC9FE;}
	.st8{fill:#E53950;}
	.st9{fill:#FFC344;}
	.st10{fill:#60B7FF;}
	.st11{display:none;}
	.st12{display:inline;fill:#323232;}
	.st13{font-family:'Arial-BoldMT';}
	.st14{font-size:70.3631px;}
	.st15{fill:#57C84D;}
	.st16{font-family:'Roboto-Bold';}
	.st17{font-size:60px;}
	.st18{fill:url(#SVGID_1_);}
	.st19{fill:url(#SVGID_00000126295362926957564290000001911153468911099533_);}
	.st20{fill:url(#SVGID_00000054945218644831359300000001139669492947220121_);}
	.st21{fill:url(#SVGID_00000111187086739490683940000004690340878137377181_);}
</style>
<desc>Created with https://simplified.co</desc>
<g id="workarea" transform="matrix(1 0 0 1 540 540)" class="st0">
	<rect x="-540" y="-540" vector-effect="non-scaling-stroke" class="st1" width="1080" height="1080"/>
</g>
<g id="aee690d3-cd0b-4232-b4fa-201989843f1d" transform="matrix(1.740116926503341 0 0 1.740116926503341 549.7416481069044 506.445434298441)">
	<g vector-effect="non-scaling-stroke">
		<g id="Capa_1" transform="matrix(1 0 0 1 0 -1.1369e-13)">
			<path vector-effect="non-scaling-stroke" class="st2" d="M256,0c0,46.4-12.3,89.9-33.9,127.4c-4.4,7.6-25.1,2.6-30.1,9.7
				c-16.2,22.6-48.6,22.7-71.2,39c-6.5,4.7-9.5,4.4-16.4,8.5l23,37.6C89.9,243.7,46.4,256,0,256s-89.9-12.3-127.4-33.9
				c-7.6-4.4,9-30.3,2-35.3c-18-13-29.4-20.7-43.5-37.8c-3.5-4.3-9.9-3.4-13.2-7.9c-5.1-7.1-35.7-6-40-13.6
				C-243.7,89.9-256,46.4-256,0c0-55.7,17.8-107.3,48.1-149.4c16.2-22.6,36-42.3,58.6-58.6c42-30.2,93.6-48,149.3-48
				s107.3,17.8,149.4,48.1c22.6,16.2,42.4,36,58.6,58.6C238.2-107.3,256-55.7,256,0z"/>
		</g>
		<g id="Capa_1_00000032622315767310998370000010417635004466950038_" transform="matrix(1 0 0 1 0 -10.129999999999939)">
			<path vector-effect="non-scaling-stroke" class="st3" d="M207.9-153.6v292.8c-16.2,22.6-36,42.4-58.6,58.6h-298.7
				c-18-13-34.3-28.2-48.4-45.4c-3.5-4.3-6.9-8.7-10.2-13.2v-292.8c0-24.4,19.8-44.2,44.2-44.2h327.4
				C188.1-197.8,207.9-178,207.9-153.6z"/>
		</g>
		
			<g id="Capa_1_00000152962025734254426480000003810447101949732753_" transform="matrix(1 0 0 1 -172.88400000000001 -33.45400000000001)">
			<path vector-effect="non-scaling-stroke" class="st4" d="M-35,174.5v-304.7c0-24.4,19.8-44.2,44.2-44.2H35
				c-24.4,0-44.2,19.8-44.2,44.2v304.7"/>
		</g>
		<g id="Capa_1_00000099651547984484278840000010174468202161996181_" transform="matrix(1 0 0 1 -152.975 -152.976)">
			<path vector-effect="non-scaling-stroke" class="st5" d="M40.2-69.1h-80.5c-16,0-28.9,12.9-28.9,28.9v80.5
				c0,16,12.9,28.9,28.9,28.9h80.5c16,0,28.9-12.9,28.9-28.9v-80.5C69.1-56.2,56.2-69.1,40.2-69.1z"/>
		</g>
		<g id="Capa_1_00000079483083100159834690000001569973194328162714_" transform="matrix(1 0 0 1 -0.00199999999999534 -152.976)">
			<path vector-effect="non-scaling-stroke" class="st6" d="M40.2-69.1h-80.5c-16,0-28.9,12.9-28.9,28.9v80.5
				c0,16,12.9,28.9,28.9,28.9h80.5c16,0,28.9-12.9,28.9-28.9v-80.5C69.1-56.2,56.2-69.1,40.2-69.1z"/>
		</g>
		<g id="Capa_1_00000099642434742750661780000008234374086337385627_" transform="matrix(1 0 0 1 152.97500000000002 -152.976)">
			<path vector-effect="non-scaling-stroke" class="st7" d="M40.2-69.1h-80.5c-16,0-28.9,12.9-28.9,28.9v80.5
				c0,16,12.9,28.9,28.9,28.9h80.5c16,0,28.9-12.9,28.9-28.9v-80.5C69.1-56.2,56.2-69.1,40.2-69.1z"/>
		</g>
		<g id="Capa_1_00000176749426538888142650000013104325871433090716_" transform="matrix(1 0 0 1 -152.975 1.421e-14)">
			<path vector-effect="non-scaling-stroke" class="st7" d="M40.2-69.1h-80.5c-16,0-28.9,12.9-28.9,28.9v80.5
				c0,16,12.9,28.9,28.9,28.9h80.5c16,0,28.9-12.9,28.9-28.9v-80.5C69.1-56.2,56.2-69.1,40.2-69.1z"/>
		</g>
		<g id="Capa_1_00000114777580827147502070000005034011524389261207_" transform="matrix(1 0 0 1 -0.00199999999999534 1.421e-14)">
			<path vector-effect="non-scaling-stroke" class="st5" d="M40.2-69.1h-80.5c-16,0-28.9,12.9-28.9,28.9v80.5
				c0,16,12.9,28.9,28.9,28.9h80.5c16,0,28.9-12.9,28.9-28.9v-80.5C69.1-56.2,56.2-69.1,40.2-69.1z"/>
		</g>
		<g id="Capa_1_00000132772462144693573260000015129269811960108465_" transform="matrix(1 0 0 1 152.97500000000002 1.421e-14)">
			<path vector-effect="non-scaling-stroke" class="st6" d="M40.2-69.1h-80.5c-16,0-28.9,12.9-28.9,28.9v80.5
				c0,16,12.9,28.9,28.9,28.9h80.5c16,0,28.9-12.9,28.9-28.9v-80.5C69.1-56.2,56.2-69.1,40.2-69.1z"/>
		</g>
		<g id="Capa_1_00000123416113190091719060000007052754548435813274_" transform="matrix(1 0 0 1 -152.97500000000002 152.975)">
			<path vector-effect="non-scaling-stroke" class="st5" d="M69.1-40.2v80.5c0,16-12.9,28.9-28.9,28.9H25.6
				c-39.3-22.6-72.1-55.4-94.7-94.7v-14.6c0-16,12.9-28.9,28.9-28.9h80.4C56.2-69.1,69.1-56.2,69.1-40.2z"/>
		</g>
		
			<g id="Capa_1_00000172425175956710598570000013532340691260629172_" transform="matrix(1 0 0 1 -0.00199999999999534 152.97699999999998)">
			<path vector-effect="non-scaling-stroke" class="st6" d="M40.2-69.1h-80.5c-16,0-28.9,12.9-28.9,28.9v80.5
				c0,16,12.9,28.9,28.9,28.9h80.5c16,0,28.9-12.9,28.9-28.9v-80.5C69.1-56.2,56.2-69.1,40.2-69.1z"/>
		</g>
		<g id="Capa_1_00000006676247821410093850000013011768376750244028_" transform="matrix(1 0 0 1 152.975 152.975)">
			<path vector-effect="non-scaling-stroke" class="st7" d="M69.1-40.2v14.6C46.5,13.8,13.8,46.5-25.6,69.1h-14.6
				c-16,0-28.9-12.9-28.9-28.9v-80.5c0-16,12.9-28.9,28.9-28.9h80.5C56.2-69.1,69.1-56.2,69.1-40.2z"/>
		</g>
		<g id="Capa_1_00000014594378849794691200000006428820311483245200_" transform="matrix(1 0 0 1 -195.48 -152.979)">
			<path vector-effect="non-scaling-stroke" class="st8" d="M26.6,69.1H2.3c-16,0-28.9-12.9-28.9-28.9v-80.4
				c0-16,12.9-28.9,28.9-28.9h24.3c-16,0-28.9,12.9-28.9,28.9v80.4C-2.3,56.2,10.7,69.1,26.6,69.1z"/>
		</g>
		<g id="Capa_1_00000163049215908232892220000002132618737606328978_" transform="matrix(1 0 0 1 -42.50399999999999 -152.979)">
			<path vector-effect="non-scaling-stroke" class="st9" d="M26.6,69.1H2.3c-16,0-28.9-12.9-28.9-28.9v-80.4
				c0-16,12.9-28.9,28.9-28.9h24.3c-16,0-28.9,12.9-28.9,28.9v80.4C-2.3,56.2,10.7,69.1,26.6,69.1z"/>
		</g>
		<g id="Capa_1_00000045601095621548945440000003292426530035119021_" transform="matrix(1 0 0 1 110.46700000000001 -152.979)">
			<path vector-effect="non-scaling-stroke" class="st10" d="M26.6,69.1H2.3c-16,0-28.9-12.9-28.9-28.9v-80.4
				c0-16,12.9-28.9,28.9-28.9h24.3c-16,0-28.9,12.9-28.9,28.9v80.4C-2.3,56.2,10.6,69.1,26.6,69.1z"/>
		</g>
		<g id="Capa_1_00000124162066865783583030000010501717654015915922_" transform="matrix(1 0 0 1 -195.48 7.105e-14)">
			<path vector-effect="non-scaling-stroke" class="st10" d="M26.6,69.1H2.3c-16,0-28.9-12.9-28.9-28.9v-80.4
				c0-16,12.9-28.9,28.9-28.9h24.3c-16,0-28.9,12.9-28.9,28.9v80.4C-2.3,56.2,10.7,69.1,26.6,69.1z"/>
		</g>
		<g id="Capa_1_00000163037131169079226270000007047560637046942365_" transform="matrix(1 0 0 1 -42.50399999999999 7.105e-14)">
			<path vector-effect="non-scaling-stroke" class="st8" d="M26.6,69.1H2.3c-16,0-28.9-12.9-28.9-28.9v-80.4
				c0-16,12.9-28.9,28.9-28.9h24.3c-16,0-28.9,12.9-28.9,28.9v80.4C-2.3,56.2,10.7,69.1,26.6,69.1z"/>
		</g>
		<g id="Capa_1_00000122002111655309916910000000480822107877835682_" transform="matrix(1 0 0 1 110.46700000000001 7.105e-14)">
			<path vector-effect="non-scaling-stroke" class="st9" d="M26.6,69.1H2.3c-16,0-28.9-12.9-28.9-28.9v-80.4
				c0-16,12.9-28.9,28.9-28.9h24.3c-16,0-28.9,12.9-28.9,28.9v80.4C-2.3,56.2,10.6,69.1,26.6,69.1z"/>
		</g>
		
			<g id="Capa_1_00000094595108140326194990000002581897486852451972_" transform="matrix(1 0 0 1 -195.48000000000002 123.21000000000001)">
			<path vector-effect="non-scaling-stroke" class="st8" d="M26.6-39.3c-15.9,0-28.9,12.9-28.9,28.9v49.8
				c-9.1-11-17.2-22.7-24.3-35.1v-14.6c0-16,12.9-28.9,28.9-28.9h24.3V-39.3z"/>
		</g>
		<g id="Capa_1_00000049194570494609862380000002290078964999764916_" transform="matrix(1 0 0 1 -42.50399999999999 152.978)">
			<path vector-effect="non-scaling-stroke" class="st9" d="M26.6,69.1H2.3c-16,0-28.9-12.9-28.9-28.9v-80.4
				c0-16,12.9-28.9,28.9-28.9h24.3c-16,0-28.9,12.9-28.9,28.9v80.4C-2.3,56.2,10.7,69.1,26.6,69.1z"/>
		</g>
		<g id="Capa_1_00000106120451125528809470000003125440144350579620_" transform="matrix(1 0 0 1 110.47 152.98)">
			<path vector-effect="non-scaling-stroke" class="st10" d="M18.8,68l-1.9,1.1H2.3c-16,0-28.9-12.9-28.9-28.9v-80.5
				c0-16,12.9-28.9,28.9-28.9h24.3c-16,0-28.9,12.9-28.9,28.9v80.5C-2.3,53.5,6.6,64.6,18.8,68z"/>
		</g>
	</g>
</g>
<g id="d1da8a8a-46c0-437d-b87b-bbd15a29099c" transform="matrix(0.2612332051149415 0 0 0.1870626598422281 549.7416481069044 428.15144766146966)">
	<g vector-effect="non-scaling-stroke">
		
			<g id="Capa_1_00000139984378390553287530000008467543597574418819_" transform="matrix(1 0 0 1 -0.4998540291170457 11.15900000000002)">
			<path vector-effect="non-scaling-stroke" class="st1" d="M141.4-49.3L122,123.1c-0.4,3.7-3.6,6.6-7.3,6.6c-0.5,0.1-1,0.1-1.5,0.1
				l0,0h-226.3c-0.5,0-0.9,0-1.3-0.1c-3.8,0-7-2.8-7.4-6.6l-19.4-172.4c-0.1-1.1,0-2.3,0.4-3.4l0.4-1.2c1-2.8,3.5-4.7,6.4-5
				s5.7,1.2,7.2,3.7l59.3,103.1L-6-125c1.1-3,3.9-5,7.1-5s6,2,7.1,5L68.7,46.3L127-55c1.5-2.5,4.3-4,7.2-3.7s5.4,2.2,6.4,5l0.4,1.2
				C141.4-51.5,141.5-50.4,141.4-49.3z"/>
		</g>
	</g>
</g>
<g id="_x38_896ce90-2aab-4409-8b55-893f16b763dc" transform="matrix(1 0 0 1 559.600055639655 1016.0982052426265)" class="st11">
	<text transform="matrix(1 0 0 1 -192.1793 22.1039)" class="st12 st13 st14">L</text>
	<text transform="matrix(1 0 0 1 -154.1832 22.1039)" class="st12 st13 st14">E</text>
	<text id="NGHIA" transform="matrix(1 0 0 1 -114.2521 22.1039)" class="st12 st13 st14">O</text>
	<text transform="matrix(1 0 0 1 -72.386 22.1039)" class="st12 st13 st14"> </text>
	<text transform="matrix(1 0 0 1 -47.4072 22.1039)" class="st12 st13 st14">N</text>
	<text transform="matrix(1 0 0 1 -3.2543 22.1039)" class="st12 st13 st14">G</text>
	<text transform="matrix(1 0 0 1 38.2599 22.1039)" class="st12 st13 st14">U</text>
	<text transform="matrix(1 0 0 1 80.3018 22.1039)" class="st12 st13 st14">Y</text>
	<text transform="matrix(1 0 0 1 122.168 22.1039)" class="st12 st13 st14">E</text>
	<text transform="matrix(1 0 0 1 162.0992 22.1039)" class="st12 st13 st14">N</text>
</g>
<text transform="matrix(1 0 0 1 264.4013 1032.2334)" class="st15 st16 st17">HUU NGHIA NGUYEN</text>
<g id="_x34_4cf5634-18e0-4ecd-b335-f01ba6e23bf5" transform="matrix(0.27622928951989645 0 0 0.27622928951989645 549.7416481069044 535.7674592529735)">
	<g vector-effect="non-scaling-stroke">
		<g id="Capa_1_00000023261840469848754740000007534812791335816106_" transform="matrix(1 0 0 1 -0.5 -0.4340000000000259)">
			<path vector-effect="non-scaling-stroke" class="st1" d="M0,255.9c-1.9,0-3.8-0.7-5.3-2.2L-47.1,212l-31.8,31.8
				c-2.9,2.9-7.7,2.9-10.6,0l-57.6-57.6c-2.9-2.9-2.9-7.7,0-10.6c2.9-2.9,7.7-2.9,10.6,0l52.3,52.3l31.8-31.8
				c2.9-2.9,7.7-2.9,10.6,0L0,237.8L41.8,196c2.9-2.9,7.7-2.9,10.6,0c2.9,2.9,2.9,7.7,0,10.6L5.3,253.7C3.8,255.2,1.9,255.9,0,255.9
				z M84.1,245.9c-1.9,0-3.8-0.7-5.3-2.2l-15.1-15.1c-2.9-2.9-2.9-7.7,0-10.6c2.9-2.9,7.7-2.9,10.6,0l9.8,9.8l52.3-52.3
				c2.9-2.9,7.7-2.9,10.6,0l18.3,18.3C213.5,143.2,241,79.2,241,17.1c0-32.4-9.5-67.4-26.7-98.5c-8.9-16.2-19.6-30.9-31.8-43.8
				c-3.9,2.8-8.3,5.6-13.3,8.6c26.7,38.3,42,70.4,42,115c0,14.5-2.5,29.7-7.4,45.3c-1.2,3.9-5.5,6.1-9.4,4.9
				c-3.9-1.2-6.1-5.5-4.9-9.4c4.5-14.1,6.7-27.8,6.7-40.7c0-43.5-15.5-73.3-44-113.1c-1.2-1.7-1.7-3.9-1.2-6
				c0.5-2.1,1.8-3.9,3.7-4.9c6.7-3.7,12.2-7.1,17-10.4c-10-9.2-20.9-17.3-32.4-24.1c-1.9-1.1-3.3-3.1-3.6-5.3
				c-0.3-2.2,0.3-4.5,1.8-6.2l18.9-20.9l-51.4-6.9c-2.3-0.3-4.3-1.6-5.4-3.6c-1.2-2-1.4-4.3-0.6-6.5l11.8-31.5
				c-41.1,0.1-84.9,1.5-106.1,18.4c-2.7,2.2-6.6,2.2-9.4,0c-21.2-16.9-65-18.3-106.1-18.4l11.8,31.5c0.8,2.1,0.6,4.5-0.6,6.5
				s-3.2,3.3-5.4,3.6l-51.4,6.9l18.9,20.9c1.5,1.7,2.2,3.9,1.8,6.2c-0.3,2.2-1.7,4.2-3.6,5.3c-11.5,6.8-22.4,14.9-32.5,24.1
				c5.1,3.5,10.8,6.9,17,10.4c1.9,1,3.2,2.8,3.7,4.9c0.5,2.1,0,4.3-1.2,6c-28.5,39.8-44,69.6-44,113.1c0,44.4,26.8,96.3,75.5,146.8
				l14.8-14.8c2.9-2.9,7.7-2.9,10.6,0c2.9,2.9,2.9,7.7,0,10.6l-20.2,20.2c-1.4,1.4-3.3,2.2-5.3,2.2c-2,0-3.9-0.8-5.3-2.2
				c-27.7-27.7-49.1-55.9-63.6-83.7c-14.3-27.5-21.6-54.1-21.6-79c0-44.7,15.3-76.8,42-115.1c-4.9-2.9-9.3-5.8-13.3-8.6
				c-12.2,12.9-22.9,27.7-31.8,43.9c-17,31-26.5,66-26.5,98.3c0,64.2,29.5,130.6,81,182c2.9,2.9,2.9,7.7,0,10.6
				c-2.9,2.9-7.7,2.9-10.6,0C-224.9,155.5-256,85.3-256,17.1c0-34.9,10.1-72.4,28.6-105.8c9.3-16.9,20.5-32.4,33.2-46
				c-2.9-2.7-5.5-5.5-7.9-8.3c-10.4-12.6-15.4-27.2-15.4-44.7c0-32.2,26.2-58.3,58.3-58.3c12.3,0,24,4,35,11.8l-4.4-11.7
				c-0.9-2.3-0.5-4.9,0.9-6.9c1.4-2,3.7-3.2,6.2-3.2c46,0,93.6,0,121.6,18.3C28.1-256,75.6-256,121.7-256c2.5,0,4.8,1.2,6.2,3.2
				c1.4,2,1.7,4.6,0.9,6.9l-4.4,11.7c11-7.8,22.7-11.8,35-11.8c32.2,0,58.3,26.2,58.3,58.3c0,11.4-2.1,21.4-6.4,30.5
				c-1.8,3.7-6.2,5.4-10,3.6c-3.7-1.8-5.4-6.2-3.6-10c3.3-7.1,4.9-15,4.9-24.1c0-23.9-19.4-43.3-43.3-43.3
				c-12.3,0-24.1,5.6-35.1,16.6l-2.2,2.2l50.5,6.8c2.8,0.4,5.1,2.2,6,4.9c1,2.6,0.4,5.5-1.5,7.6l-22.4,24.8
				c29.6,19.3,54.7,46.6,72.8,79.5C245.9-55.3,256-17.7,256,17.1c0,68.2-31.1,138.4-85.4,192.6c-2.9,2.9-7.7,2.9-10.6,0l-18.3-18.3
				l-52.3,52.3C88,245.2,86,245.9,84.1,245.9z M-159.2-230.9c-23.9,0-43.3,19.4-43.3,43.3c0,18.2,6.7,31.1,18.9,42.3
				c9.1-8.5,18.8-16.1,29-22.8l-22.4-24.8c-1.9-2.1-2.4-5-1.5-7.6c1-2.6,3.3-4.5,6-4.9l50.5-6.8l-2.2-2.2
				C-135.1-225.4-146.9-230.9-159.2-230.9z M0,179.5c-20.8,0-37.3-5.2-49-15.4c-8.6-7.5-14.5-17.5-17.5-29.8
				c-6.2-2.2-12.9-7.3-18.5-14.5c-7.8-9.9-12.3-22-12.8-34.1c-6.5-10-33-51.6-46.5-86c-1.5-3.9,0.4-8.2,4.3-9.7s8.2,0.4,9.7,4.3
				c9.2,23.5,25.2,51.2,35.6,68.3C-90,46.8-80.9,31.7-72,16.9c2.2-3.7,4.6-7.6,6.8-11.4C-63,2-58.4,0.7-54.8,2.8
				c3.6,2.1,4.8,6.7,2.7,10.3c-2.3,3.9-4.6,7.8-6.9,11.6C-71.3,44.9-82.8,64-82.8,83.4c0,21.7,17.2,37.1,22.7,37.1
				c17.8,0,42.6-9.3,52.7-13.4V84.4C-19.8,80-39.3,68-43.6,57.6c-2-4.9-1.1-10,2.4-13.5c10-10,32-5.7,41.2-3.3
				c9.2-2.4,31.2-6.8,41.2,3.3c3.5,3.5,4.4,8.6,2.4,13.5C39.3,68,19.8,80,7.5,84.4v22.7c10,4.1,34.9,13.4,52.7,13.4
				c5.5,0,22.7-15.4,22.7-37.1c0-19.4-11.5-38.5-23.8-58.7c-2.3-3.8-4.6-7.7-6.9-11.6c-2.1-3.6-0.9-8.2,2.7-10.3
				C58.4,0.7,63,2,65.1,5.5c2.2,3.8,4.5,7.7,6.8,11.4C78.2,27.3,84.7,38,89.5,48.8c2.1,4.8,3.8,9.3,5.2,13.8
				c19.1-31.2,42.7-75.2,42.7-96.3c0-13.8-11-37.1-28.8-60.7c-18.9-25.2-34.5-36.3-38.3-36.4c-12.4,0-46.1,13.4-62.7,20.5v52.5
				c0,4.1-3.4,7.5-7.5,7.5s-7.5-3.4-7.5-7.5v-52.5c-16.6-7.1-50.3-20.5-62.7-20.5c-3.8,0.1-19.4,11.2-38.3,36.4
				c-17.8,23.7-28.8,46.9-28.8,60.7c0,4.1-3.4,7.5-7.5,7.5s-7.5-3.4-7.5-7.5c0-25.5,24.5-60,32-70c7.4-9.9,33-42.1,50.1-42.1
				c17.2,0,58,17.1,70.2,22.4c12.3-5.3,53-22.4,70.2-22.4c6.4,0,14.4,4.4,24.3,13.3c8.2,7.4,17.3,17.6,25.8,28.8
				c7.5,10,32,44.5,32,70c0,33.8-44.2,103.6-54.5,119.5c-0.4,9.8-3.4,19.5-8.6,28.1l31.4,31.4c25.8-26.7,45.4-53.5,58.2-79.8
				c1.8-3.7,6.3-5.3,10-3.4c3.7,1.8,5.3,6.3,3.4,10c-14.5,29.6-36.8,59.6-66.4,89.2c-2.9,2.9-7.7,2.9-10.6,0l-35.6-35.6
				c-4.3,4.2-8.9,7.2-13.3,8.7c-3,12.3-8.9,22.3-17.5,29.8C37.3,174.4,20.8,179.5,0,179.5z M-50.8,134.9
				c6.5,19.7,23.6,29.7,50.8,29.7s44.2-10,50.8-29.7c-20-2.4-42.6-11.2-50.8-14.6C-8.1,123.7-30.7,132.5-50.8,134.9z M-28.5,53.6
				c1.7,2,5.3,5.4,12.2,9.6c7.9,4.9,14.4,7.5,16.4,7.8c1.9-0.4,8.5-2.9,16.4-7.8c6.9-4.3,10.5-7.6,12.2-9.6
				c-5.2-1.7-17.2-0.4-26.5,2.2c-1.3,0.4-2.8,0.4-4.1,0C-11.4,53.2-23.3,52-28.5,53.6z M54.3-22.9c-1.9,0-3.8-0.7-5.3-2.2
				c-2.9-2.9-2.9-7.7,0-10.6l20-20c2.9-2.9,7.7-2.9,10.6,0c2.9,2.9,2.9,7.7,0,10.6l-20,20C58.1-23.7,56.2-22.9,54.3-22.9z
				 M-54.3-22.9c-1.9,0-3.8-0.7-5.3-2.2l-20-20c-2.9-2.9-2.9-7.7,0-10.6s7.7-2.9,10.6,0l20,20c2.9,2.9,2.9,7.7,0,10.6
				C-50.4-23.7-52.4-22.9-54.3-22.9z"/>
		</g>
	</g>
</g>
<g id="_x36_67e366c-48f3-40a7-bca8-f1e3f46f5cd4" transform="matrix(0.0001 0 0 0.0001 0.0256 0.0256)">
	<g vector-effect="non-scaling-stroke">
		<g id="Rubik_1_" transform="matrix(1 0 0 1 76 -76)">
			
				<linearGradient id="SVGID_1_" gradientUnits="userSpaceOnUse" x1="-74.9744" y1="-15227.0254" x2="-74.9744" y2="-15227.0254" gradientTransform="matrix(9.999999e-09 0 0 9.999999e-09 -495.0163 76.0256)">
				<stop  offset="0" style="stop-color:#FFE59A"/>
				<stop  offset="1" style="stop-color:#FFFFD5"/>
			</linearGradient>
			<path vector-effect="non-scaling-stroke" class="st18" d="M-76,76L-76,76L-76,76L-76,76L-76,76L-76,76L-76,76L-76,76z M-76,76
				L-76,76L-76,76L-76,76L-76,76L-76,76L-76,76L-76,76z M-76,76L-76,76L-76,76L-76,76L-76,76L-76,76L-76,76L-76,76z M-76,76L-76,76
				L-76,76L-76,76L-76,76L-76,76L-76,76L-76,76z"/>
		</g>
		<g id="Rubik_00000057866433598741476880000016507391330862096279_" transform="matrix(1 0 0 1 -0.00012500000002547 5.684e-14)">
			
				<linearGradient id="SVGID_00000128456820930628860840000018227010349878013876_" gradientUnits="userSpaceOnUse" x1="1.0257" y1="-15303.0254" x2="1.0257" y2="-15303.0254" gradientTransform="matrix(9.999999e-09 0 0 9.999999e-09 -419.0162 2.560000e-02)">
				<stop  offset="0" style="stop-color:#FD5900"/>
				<stop  offset="1" style="stop-color:#FFDE00"/>
			</linearGradient>
			<path vector-effect="non-scaling-stroke" style="fill:url(#SVGID_00000128456820930628860840000018227010349878013876_);" d="
				M0,0L0,0L0,0L0,0L0,0L0,0z M0,0C0,0,0,0,0,0L0,0L0,0L0,0L0,0z M0,0C0,0,0,0,0,0L0,0L0,0L0,0L0,0z M0,0L0,0L0,0L0,0L0,0L0,0z M0,0
				L0,0L0,0L0,0L0,0z M0,0L0,0L0,0L0,0L0,0L0,0L0,0L0,0L0,0L0,0L0,0L0,0L0,0L0,0L0,0L0,0L0,0L0,0L0,0L0,0L0,0L0,0z M0,0L0,0L0,0L0,0
				L0,0L0,0L0,0L0,0L0,0L0,0L0,0C0,0,0,0,0,0C0,0,0,0,0,0L0,0L0,0L0,0C0,0,0,0,0,0C0,0,0,0,0,0L0,0C0,0,0,0,0,0L0,0z"/>
		</g>
	</g>
</g>
<g id="_x35_9f8e837-6dde-4dd3-b3ca-61f40d20bc6e" transform="matrix(0.0001 0 0 0.0001 0.0256 0.0256)">
	<g vector-effect="non-scaling-stroke">
		<g id="Rubik_00000046315180989483933430000002488623841593831059_" transform="matrix(1 0 0 1 76 -76)">
			
				<linearGradient id="SVGID_00000065784136447483043690000014105707804637232012_" gradientUnits="userSpaceOnUse" x1="-75.9743" y1="74.4953" x2="-75.9743" y2="74.4953" gradientTransform="matrix(1.000000e-16 0 0 1.000000e-16 -76.0163 76.0256)">
				<stop  offset="0" style="stop-color:#FFE59A"/>
				<stop  offset="1" style="stop-color:#FFFFD5"/>
			</linearGradient>
			<path vector-effect="non-scaling-stroke" style="fill:url(#SVGID_00000065784136447483043690000014105707804637232012_);" d="
				M-76,76L-76,76L-76,76L-76,76L-76,76L-76,76L-76,76L-76,76z M-76,76L-76,76L-76,76L-76,76L-76,76L-76,76L-76,76L-76,76z M-76,76
				L-76,76L-76,76L-76,76L-76,76L-76,76L-76,76L-76,76z M-76,76L-76,76L-76,76L-76,76L-76,76L-76,76L-76,76L-76,76z"/>
		</g>
		<g id="Rubik_00000179638979875384812790000008380188858682772646_" transform="matrix(1 0 0 1 -0.00012500000002547 5.684e-14)">
			
				<linearGradient id="SVGID_00000172434234785412418880000006257360225780987038_" gradientUnits="userSpaceOnUse" x1="2.582756e-02" y1="-1.5047" x2="2.582756e-02" y2="-1.5047" gradientTransform="matrix(1.000000e-16 0 0 1.000000e-16 -1.617244e-02 2.560256e-02)">
				<stop  offset="0" style="stop-color:#FD5900"/>
				<stop  offset="1" style="stop-color:#FFDE00"/>
			</linearGradient>
			<path vector-effect="non-scaling-stroke" style="fill:url(#SVGID_00000172434234785412418880000006257360225780987038_);" d="
				M0,0L0,0L0,0L0,0L0,0L0,0z M0,0L0,0L0,0L0,0L0,0L0,0z M0,0L0,0L0,0L0,0L0,0L0,0z M0,0L0,0L0,0L0,0L0,0L0,0z M0,0L0,0L0,0L0,0L0,0
				z M0,0L0,0L0,0L0,0L0,0L0,0L0,0L0,0L0,0L0,0L0,0L0,0L0,0L0,0L0,0L0,0L0,0L0,0L0,0L0,0L0,0L0,0z M0,0L0,0L0,0L0,0L0,0L0,0L0,0L0,0
				L0,0L0,0L0,0L0,0L0,0L0,0L0,0L0,0L0,0L0,0L0,0L0,0L0,0z"/>
		</g>
	</g>
</g>
</svg>
